<?xml version="1.0" encoding="UTF-8"?>
<!-- Generator: visioncortex VTracer 0.6.3 -->
<svg version="1.1" xmlns="http://www.w3.org/2000/svg" width="1280" height="821">
<path d="M0 0 C1.28 -0.01 1.28 -0.01 2.6 -0.02 C34.99 -0.17 66.83 8.01 95.31 23.44 C95.96 23.78 96.61 24.12 97.28 24.48 C105.46 28.8 113.22 33.57 120.81 38.88 C121.56 39.4 122.31 39.92 123.08 40.45 C123.77 40.94 124.45 41.43 125.16 41.93 C125.77 42.37 126.38 42.8 127.01 43.25 C127.44 43.64 127.87 44.03 128.31 44.44 C128.31 45.1 128.31 45.76 128.31 46.44 C128.86 46.66 129.4 46.89 129.96 47.12 C133.01 48.83 135.41 51.06 137.94 53.44 C138.47 53.93 139 54.43 139.54 54.94 C140.62 55.95 141.7 56.97 142.78 57.99 C144.13 59.27 145.5 60.53 146.86 61.79 C152.27 66.94 156.9 72.53 161.44 78.44 C162.31 79.57 162.31 79.57 163.2 80.73 C167.31 86.18 167.31 86.18 167.31 88.44 C167.97 88.44 168.63 88.44 169.31 88.44 C170.95 90.68 172.42 92.9 173.88 95.25 C174.32 95.96 174.76 96.67 175.21 97.41 C180.27 105.75 184.35 114.53 188.31 123.44 C189.04 125.04 189.04 125.04 189.77 126.68 C191.03 129.57 192.19 132.48 193.31 135.44 C193.66 136.35 193.66 136.35 194.02 137.29 C212.07 185.4 210.97 242.54 190.31 289.72 C188.41 293.78 186.35 297.74 184.23 301.69 C182.85 304.32 181.59 307.01 180.31 309.69 C174.93 320.42 167.62 329.96 160.31 339.44 C159.56 340.42 158.81 341.4 158.04 342.41 C157.32 343.33 156.61 344.24 155.88 345.19 C155.24 346.01 154.6 346.83 153.94 347.67 C153.4 348.25 152.87 348.84 152.31 349.44 C151.65 349.44 150.99 349.44 150.31 349.44 C150.08 350 149.84 350.56 149.59 351.14 C148.02 353.96 146.1 355.92 143.81 358.19 C143.02 358.99 142.22 359.79 141.41 360.61 C139.31 362.44 139.31 362.44 137.31 362.44 C137.31 363.1 137.31 363.76 137.31 364.44 C126.5 374.67 113.54 383.7 100.31 390.44 C99 391.15 97.69 391.87 96.38 392.59 C77.73 402.79 58.2 409.71 37.31 413.75 C36.49 413.91 35.67 414.07 34.82 414.23 C23.86 416.22 12.94 416.6 1.82 416.57 C-0.19 416.56 -2.19 416.57 -4.2 416.57 C-32.89 416.55 -60.99 410.34 -86.69 397.44 C-87.65 396.98 -88.62 396.52 -89.61 396.05 C-108.48 386.95 -125.61 374.98 -140.69 360.44 C-141.29 359.86 -141.9 359.28 -142.53 358.68 C-144.59 356.69 -146.64 354.69 -148.69 352.69 C-149.35 352.05 -150.01 351.41 -150.69 350.75 C-153.93 347.53 -156.44 344.97 -157.69 340.44 C-158.35 340.44 -159.01 340.44 -159.69 340.44 C-160.98 339.01 -160.98 339.01 -162.45 336.99 C-162.98 336.25 -163.52 335.51 -164.08 334.75 C-164.94 333.54 -164.94 333.54 -165.81 332.31 C-166.4 331.49 -166.99 330.67 -167.59 329.82 C-172.46 322.93 -176.76 315.91 -180.69 308.44 C-181.19 307.5 -181.19 307.5 -181.7 306.54 C-186.87 296.78 -191.05 286.87 -194.69 276.44 C-195.07 275.37 -195.45 274.29 -195.84 273.19 C-198.2 266.36 -200.07 259.48 -201.69 252.44 C-201.87 251.68 -202.06 250.91 -202.25 250.13 C-208.33 222.91 -207.98 191.56 -201.69 164.44 C-201.46 163.38 -201.23 162.32 -201 161.23 C-199.81 155.8 -198.47 150.67 -196.47 145.49 C-195.72 143.52 -195.03 141.54 -194.36 139.54 C-188.96 123.46 -181.79 108.74 -172.69 94.44 C-172.12 93.54 -172.12 93.54 -171.54 92.62 C-166.86 85.24 -166.86 85.24 -164.69 82.44 C-164.03 82.44 -163.37 82.44 -162.69 82.44 C-162.31 81.6 -162.31 81.6 -161.92 80.74 C-157.97 73.36 -151.7 67.18 -145.69 61.44 C-144.82 60.57 -143.95 59.7 -143.06 58.81 C-141.89 57.64 -141.89 57.64 -140.69 56.44 C-139.36 55.05 -139.36 55.05 -138 53.62 C-135.69 51.44 -135.69 51.44 -133.69 51.44 C-133.69 50.78 -133.69 50.12 -133.69 49.44 C-131.6 47.64 -129.51 45.97 -127.31 44.31 C-126.71 43.84 -126.11 43.38 -125.48 42.89 C-120.95 39.44 -120.95 39.44 -118.69 39.44 C-118.69 38.78 -118.69 38.12 -118.69 37.44 C-116.63 35.92 -116.63 35.92 -113.81 34.19 C-112.79 33.56 -111.78 32.93 -110.73 32.29 C-109.72 31.68 -108.72 31.07 -107.69 30.44 C-106.93 29.95 -106.18 29.46 -105.4 28.96 C-86.5 17.01 -65.27 9.71 -43.69 4.44 C-42.84 4.22 -41.98 4.01 -41.11 3.78 C-27.49 0.45 -13.95 0.05 0 0 Z " fill="black" transform="translate(598.6875,214.5625)"/>
<path d="M0 0 C0.84 0.06 1.68 0.13 2.54 0.2 C16.22 1.28 29.45 3.06 42.69 6.81 C43.39 7.01 44.1 7.21 44.82 7.41 C64.39 13.09 83.24 22.4 98.69 35.81 C98.69 36.47 98.69 37.13 98.69 37.81 C99.26 38.06 99.83 38.31 100.42 38.56 C103.04 40.01 104.84 41.69 106.94 43.81 C108 44.86 108 44.86 109.08 45.94 C110.69 47.81 110.69 47.81 110.69 49.81 C111.35 49.81 112.01 49.81 112.69 49.81 C114.33 51.65 115.83 53.48 117.31 55.44 C117.76 56.02 118.2 56.6 118.65 57.2 C123.28 63.4 127.07 69.97 130.69 76.81 C131.01 77.42 131.34 78.02 131.67 78.64 C134.46 83.99 136.48 89.48 138.38 95.19 C138.84 96.51 138.84 96.51 139.31 97.86 C141.28 103.75 142.67 109.56 142.69 115.81 C141.02 117.48 138.86 117.34 136.58 117.68 C134.99 117.92 134.99 117.92 133.37 118.17 C132.24 118.34 131.11 118.51 129.94 118.69 C122.29 119.87 114.77 121.15 107.26 123.03 C101.01 124.4 94.67 125.36 88.35 126.37 C83.06 127.22 77.84 128.16 72.64 129.43 C69.62 130.02 66.76 129.94 63.69 129.81 C63.41 129.18 63.13 128.55 62.84 127.9 C61.48 124.86 60.08 121.84 58.69 118.81 C58.19 117.69 57.69 116.57 57.18 115.42 C48.72 97.24 33.93 82.51 14.94 75.34 C11.22 74.02 7.49 72.85 3.69 71.81 C3 71.63 2.32 71.44 1.62 71.25 C-6.75 69.25 -15.27 69.42 -23.81 69.44 C-25.02 69.44 -25.02 69.44 -26.24 69.44 C-38.08 69.46 -48.96 70.22 -60.31 73.81 C-61.22 74.03 -62.13 74.24 -63.07 74.46 C-74.53 77.28 -85.02 84.18 -94.24 91.34 C-96.31 92.81 -96.31 92.81 -98.31 92.81 C-98.31 93.47 -98.31 94.13 -98.31 94.81 C-99.69 96.44 -99.69 96.44 -101.31 97.81 C-101.97 97.81 -102.63 97.81 -103.31 97.81 C-103.31 98.47 -103.31 99.13 -103.31 99.81 C-104.69 101.44 -104.69 101.44 -106.31 102.81 C-106.97 102.81 -107.63 102.81 -108.31 102.81 C-108.59 103.39 -108.87 103.98 -109.16 104.57 C-110.24 106.68 -111.42 108.63 -112.7 110.61 C-129.85 137.57 -134.96 166.13 -134.69 197.69 C-134.68 198.65 -134.68 199.6 -134.67 200.59 C-134.56 221.36 -132.93 241.02 -126.31 260.81 C-126.07 261.56 -125.82 262.31 -125.56 263.09 C-120.68 277.59 -113.45 289.34 -103.31 300.81 C-103.31 301.47 -103.31 302.13 -103.31 302.81 C-102.32 303.14 -101.33 303.47 -100.31 303.81 C-100.31 304.47 -100.31 305.13 -100.31 305.81 C-99.65 305.81 -98.99 305.81 -98.31 305.81 C-98.31 306.47 -98.31 307.13 -98.31 307.81 C-97.77 308.05 -97.22 308.3 -96.66 308.55 C-93.78 310.1 -91.38 312.03 -88.81 314.06 C-83.02 318.52 -77 321.84 -70.31 324.81 C-69.47 325.19 -68.63 325.57 -67.76 325.96 C-37.51 338.81 -1.64 335.36 28.31 323.3 C35.85 319.97 43.48 316.45 50.47 312.07 C52.69 310.81 52.69 310.81 55.69 310.81 C55.69 310.15 55.69 309.49 55.69 308.81 C56.86 308.38 56.86 308.38 58.05 307.95 C61.95 306.38 63.97 305.06 66.69 301.81 C68.82 294.02 68.03 285.35 67.88 277.38 C67.78 265.71 67.78 265.71 67.69 253.81 C37.99 253.81 8.29 253.81 -22.31 253.81 C-22.31 231.7 -22.31 209.59 -22.31 186.81 C33.79 186.81 89.89 186.81 147.69 186.81 C147.69 238.62 147.69 290.43 147.69 343.81 C147.03 343.81 146.37 343.81 145.69 343.81 C145.69 344.47 145.69 345.13 145.69 345.81 C142.23 348.81 142.23 348.81 139.69 348.81 C139.69 349.47 139.69 350.13 139.69 350.81 C136.99 353.21 133.96 355.19 131 357.25 C129.66 358.19 129.66 358.19 128.29 359.14 C118.87 365.58 108.94 370.84 98.69 375.81 C97.64 376.32 96.6 376.83 95.52 377.36 C92.93 378.57 90.32 379.7 87.69 380.81 C85.88 381.61 85.88 381.61 84.03 382.41 C65.59 390.36 46.4 396.08 26.69 399.81 C25.41 400.06 25.41 400.06 24.11 400.31 C9.29 403.05 -5.54 403.07 -20.56 403.06 C-21.55 403.06 -22.53 403.06 -23.55 403.06 C-37.27 403.03 -50.73 402.75 -64.25 400.12 C-65.59 399.87 -65.59 399.87 -66.95 399.6 C-85.63 395.83 -105.86 390.74 -122.02 380.28 C-124.59 378.63 -127.24 377.19 -129.94 375.75 C-133.33 373.91 -136.69 372.05 -140 370.06 C-140.64 369.68 -141.29 369.29 -141.95 368.89 C-142.4 368.53 -142.85 368.18 -143.31 367.81 C-143.31 367.15 -143.31 366.49 -143.31 365.81 C-144.36 365.49 -144.36 365.49 -145.43 365.16 C-149.04 363.47 -151.61 361.04 -154.44 358.31 C-157.29 355.6 -160.02 353.01 -163.31 350.81 C-163.31 350.15 -163.31 349.49 -163.31 348.81 C-163.97 348.81 -164.63 348.81 -165.31 348.81 C-166.75 347.24 -168.11 345.6 -169.44 343.94 C-170.65 342.42 -170.65 342.42 -171.88 340.88 C-173.08 339.36 -173.08 339.36 -174.31 337.81 C-175.35 336.58 -175.35 336.58 -176.4 335.31 C-185.41 324.46 -191.59 312.59 -197.37 299.83 C-198.34 297.76 -199.36 295.73 -200.39 293.7 C-212.1 270.46 -217.42 241.77 -217.52 215.95 C-217.52 214.72 -217.53 213.49 -217.53 212.23 C-217.54 209.64 -217.55 207.04 -217.55 204.45 C-217.56 200.55 -217.59 196.65 -217.62 192.75 C-217.69 178.49 -217.13 164.8 -214.31 150.81 C-214.09 149.7 -213.87 148.59 -213.65 147.44 C-213.08 144.8 -212.47 142.18 -211.81 139.56 C-211.51 138.3 -211.51 138.3 -211.21 137 C-209.93 131.77 -208.28 126.82 -206.31 121.81 C-205.82 120.46 -205.33 119.11 -204.84 117.76 C-198.9 101.69 -191.18 86.83 -181.31 72.81 C-180.62 71.72 -179.93 70.62 -179.21 69.49 C-178.58 68.61 -177.96 67.72 -177.31 66.81 C-176.65 66.81 -175.99 66.81 -175.31 66.81 C-175.04 66.22 -174.77 65.64 -174.49 65.03 C-159.96 37.7 -120.72 17.25 -92.75 8.25 C-89.95 7.4 -87.14 6.59 -84.31 5.81 C-83.32 5.54 -83.32 5.54 -82.31 5.25 C-70.83 2.18 -59.17 1.07 -47.38 0.06 C-46.62 -0 -45.87 -0.07 -45.09 -0.13 C-29.92 -1.42 -15.16 -1.17 0 0 Z " fill="black" transform="translate(217.3125,211.1875)"/>
<path d="M0 0 C1.32 0.66 2.64 1.32 4 2 C4 2.66 4 3.32 4 4 C4.99 4.33 5.98 4.66 7 5 C7 5.66 7 6.32 7 7 C7.57 7.25 8.14 7.49 8.73 7.75 C11.38 9.21 13.19 10.93 15.33 13.06 C16.13 13.86 16.93 14.66 17.75 15.48 C18.99 16.73 18.99 16.73 20.25 18 C21.09 18.83 21.93 19.67 22.8 20.52 C23.59 21.32 24.38 22.12 25.2 22.94 C25.93 23.67 26.66 24.4 27.41 25.15 C29 27 29 27 29 29 C29.66 29 30.32 29 31 29 C32.52 30.5 32.52 30.5 34.25 32.56 C34.86 33.29 35.48 34.01 36.11 34.76 C37.05 35.87 37.05 35.87 38 37 C38.59 37.67 39.18 38.33 39.79 39.02 C40.34 39.63 40.88 40.24 41.44 40.88 C42.18 41.71 42.18 41.71 42.93 42.55 C44 44 44 44 44 46 C44.66 46 45.32 46 46 46 C47.77 48.05 49.43 50.1 51.06 52.25 C51.55 52.88 52.03 53.51 52.53 54.16 C53.54 55.46 54.54 56.77 55.54 58.08 C56.9 59.87 58.28 61.65 59.66 63.43 C66.27 72.05 66.27 72.05 68 77 C68.66 77 69.32 77 70 77 C71.38 78.88 71.38 78.88 73 81.56 C75.36 85.39 77.77 89.16 80.3 92.87 C91.4 109.15 101.66 126.13 110 144 C110.68 145.44 111.36 146.89 112.04 148.33 C113.08 150.52 114.11 152.72 115.13 154.91 C117.51 160 119.99 165.01 122.58 170 C124.2 173.42 125.59 176.9 126.98 180.43 C127.9 182.74 128.84 185.04 129.79 187.33 C137.9 207.03 145.14 227.23 150.45 247.87 C151.04 250.17 151.65 252.46 152.27 254.75 C153.33 258.75 154.38 262.76 155.42 266.77 C155.95 268.82 156.51 270.87 157.06 272.91 C159.71 282.93 161.43 293.02 163.06 303.25 C163.8 307.84 164.65 312.38 165.56 316.94 C167.45 326.86 168.57 336.88 169.66 346.91 C169.87 348.82 170.09 350.74 170.31 352.65 C175.48 397.32 174.48 444.55 168 489 C167.76 490.81 167.52 492.63 167.28 494.45 C167.15 495.41 167.02 496.38 166.89 497.38 C166.64 499.27 166.39 501.17 166.14 503.06 C165.44 508.31 164.55 513.49 163.48 518.68 C162.8 521.98 162.22 525.3 161.62 528.62 C160.25 536.07 158.5 543.4 156.59 550.73 C155.95 553.18 155.34 555.64 154.73 558.1 C145.89 593.27 133.74 627.39 118.25 660.19 C117.92 660.88 117.6 661.57 117.26 662.29 C111.84 673.64 106.1 684.91 99.45 695.59 C97.97 698.04 96.62 700.54 95.28 703.07 C92.05 709.02 88.47 714.67 84.75 720.31 C84.09 721.31 83.44 722.32 82.76 723.35 C78.37 730.02 73.86 736.58 69.16 743.03 C66.47 746.73 63.92 750.51 61.38 754.3 C60.92 754.86 60.47 755.42 60 756 C59.34 756 58.68 756 58 756 C57.63 757.07 57.63 757.07 57.25 758.17 C55.86 761.31 54.16 763.64 52 766.31 C51.3 767.2 50.6 768.08 49.88 768.99 C49.26 769.65 48.64 770.32 48 771 C47.34 771 46.68 771 46 771 C45.75 771.55 45.51 772.1 45.25 772.67 C43.76 775.45 41.96 777.78 40 780.25 C39.3 781.14 38.6 782.03 37.88 782.95 C37.26 783.63 36.64 784.3 36 785 C35.34 785 34.68 785 34 785 C33.73 785.58 33.46 786.17 33.19 786.77 C31.99 789.03 30.66 790.81 29 792.75 C28.48 793.36 27.97 793.98 27.44 794.61 C26 796 26 796 24 796 C23.74 796.58 23.48 797.17 23.21 797.77 C21.92 800.16 20.51 801.75 18.59 803.67 C17.93 804.34 17.27 805 16.59 805.68 C15.9 806.37 15.21 807.05 14.5 807.75 C13.47 808.8 13.47 808.8 12.41 809.86 C11.75 810.52 11.09 811.18 10.41 811.86 C9.8 812.46 9.2 813.07 8.57 813.69 C7 815 7 815 5 815 C5 815.66 5 816.32 5 817 C3.75 818.63 3.75 818.63 2 820 C-2 820 -2 820 -3.92 818.32 C-4.53 817.6 -5.13 816.87 -5.75 816.12 C-6.36 815.41 -6.98 814.69 -7.61 813.95 C-9 812 -9 812 -9 810 C-9.66 810 -10.32 810 -11 810 C-12.52 808.3 -13.97 806.54 -15.38 804.75 C-17.59 801.95 -19.73 799.26 -22.29 796.77 C-24 795 -24 795 -24 793 C-24.66 793 -25.32 793 -26 793 C-31 787.52 -31 787.52 -31 785 C-31.66 785 -32.32 785 -33 785 C-34.45 783.57 -34.45 783.57 -36.12 781.56 C-39.49 777.58 -42.97 773.72 -46.5 769.88 C-48 768 -48 768 -48 766 C-48.66 766 -49.32 766 -50 766 C-52.69 763.25 -52.69 763.25 -55 760 C-54.73 756.58 -53.29 754.94 -50.87 752.61 C-50.23 751.99 -49.59 751.36 -48.93 750.72 C-48.26 750.07 -47.58 749.42 -46.88 748.75 C-45.49 747.39 -44.11 746.04 -42.72 744.68 C-42.1 744.07 -41.48 743.46 -40.83 742.84 C-37.71 739.71 -34.84 736.39 -32 733 C-31.1 731.97 -30.21 730.93 -29.31 729.9 C-9.53 707.14 7.71 682.67 23 656.68 C23.92 655.14 24.86 653.6 25.8 652.07 C30.38 644.48 34.13 636.59 37.86 628.56 C39.6 624.84 41.4 621.16 43.25 617.5 C50.41 603.26 55.95 588.56 60.82 573.4 C62 570 62 570 63.46 566.73 C65.48 562.12 66.66 557.29 67.94 552.44 C68.46 550.46 68.99 548.48 69.52 546.5 C69.77 545.55 70.03 544.6 70.29 543.62 C71.17 540.37 72.15 537.16 73.12 533.94 C75.14 527.03 76.42 520 77.69 512.93 C77.85 512.06 78.01 511.19 78.17 510.3 C78.3 509.52 78.44 508.74 78.58 507.93 C79 506 79 506 80 504 C80.41 501.7 80.78 499.38 81.12 497.07 C81.23 496.37 81.33 495.68 81.44 494.96 C81.78 492.68 82.11 490.4 82.44 488.12 C82.55 487.35 82.66 486.57 82.78 485.77 C90.23 434.35 90.11 382.13 81.48 330.87 C81.06 328.35 80.66 325.82 80.29 323.29 C78.46 311.28 75.6 299.56 72.67 287.78 C71.88 284.5 71.16 281.21 70.47 277.9 C69.83 275.32 68.83 272.89 67.85 270.42 C66.72 267.21 65.9 263.92 65.06 260.62 C63.74 255.5 62.19 250.63 60.12 245.76 C58.67 242.2 57.44 238.57 56.19 234.94 C49.67 216.23 41.47 198.41 32.11 180.98 C30.38 177.75 28.77 174.49 27.19 171.19 C16.82 150.36 3.2 130.88 -10.85 112.39 C-14 108.21 -14 108.21 -14 106 C-14.66 106 -15.32 106 -16 106 C-17.37 104.43 -17.37 104.43 -18.88 102.31 C-20.66 99.85 -22.44 97.47 -24.38 95.12 C-26 93 -26 93 -26 91 C-26.66 91 -27.32 91 -28 91 C-29.52 89.3 -30.97 87.54 -32.38 85.75 C-34.59 82.95 -36.73 80.26 -39.29 77.77 C-41 76 -41 76 -41 74 C-41.66 74 -42.32 74 -43 74 C-44.52 72.46 -44.52 72.46 -46.25 70.38 C-48.55 67.65 -50.87 65.15 -53.5 62.75 C-54.33 61.84 -55.15 60.94 -56 60 C-55.6 56.73 -54.57 55.06 -52 53 C-51.34 53 -50.68 53 -50 53 C-50 52.34 -50 51.68 -50 51 C-49.34 51 -48.68 51 -48 51 C-47.74 50.41 -47.47 49.82 -47.2 49.21 C-45.95 46.91 -44.65 45.44 -42.78 43.62 C-42.16 43.01 -41.54 42.4 -40.9 41.77 C-40.25 41.14 -39.6 40.52 -38.94 39.88 C-37.65 38.62 -36.37 37.37 -35.09 36.12 C-34.52 35.57 -33.95 35.02 -33.37 34.45 C-31.89 33.03 -31.89 33.03 -31 31 C-30.34 31 -29.68 31 -29 31 C-28.67 30.01 -28.34 29.02 -28 28 C-27.34 28 -26.68 28 -26 28 C-26 27.34 -26 26.68 -26 26 C-25.34 26 -24.68 26 -24 26 C-23.77 25.45 -23.55 24.89 -23.31 24.33 C-21.61 21.31 -19.45 19.23 -16.99 16.8 C-16.51 16.31 -16.02 15.83 -15.52 15.33 C-13.98 13.8 -12.43 12.28 -10.88 10.75 C-9.82 9.71 -8.77 8.67 -7.72 7.62 C-5.15 5.08 -2.58 2.54 0 0 Z " fill="black" transform="translate(1107,1)"/>
<path d="M0 0 C3.59 0.23 5.64 2.11 8.25 4.44 C8.96 5.05 9.66 5.67 10.39 6.31 C12 8 12 8 12 10 C12.66 10 13.32 10 14 10 C15.62 11.38 15.62 11.38 17 13 C17 13.66 17 14.32 17 15 C17.66 15 18.32 15 19 15 C20.45 16.43 20.45 16.43 22.12 18.44 C25.49 22.42 28.97 26.28 32.5 30.12 C34 32 34 32 34 34 C34.66 34 35.32 34 36 34 C37.45 35.74 38.81 37.54 40.12 39.38 C41.21 40.87 41.21 40.87 42.32 42.4 C44 45 44 45 44 47 C44.66 47 45.32 47 46 47 C47.38 48.88 47.38 48.88 49 51.56 C51.5 55.62 54.07 59.6 56.76 63.53 C60.79 69.44 64.37 75.31 67.45 81.79 C68.97 84.95 70.6 88.04 72.26 91.13 C79.04 103.73 84.97 116.26 89.54 129.83 C90.58 132.9 91.75 135.89 92.96 138.89 C99.9 156.05 104.07 173.96 108 192 C108.35 193.56 108.7 195.11 109.05 196.67 C118.67 240.05 120.95 284.63 117.62 328.88 C117.56 329.71 117.5 330.55 117.43 331.41 C116.34 345.62 115.02 359.82 112.25 373.81 C112.08 374.67 111.92 375.52 111.75 376.4 C108.45 393.05 105.11 409.8 100 426 C99.71 426.94 99.42 427.88 99.12 428.85 C98.09 432.18 97.04 435.49 96 438.81 C95.67 439.88 95.34 440.94 94.99 442.03 C93.24 447.53 91.31 452.81 88.89 458.05 C87.7 460.65 86.73 463.32 85.75 466 C77.61 487.33 66.27 507.42 54.34 526.82 C53.14 528.78 51.94 530.74 50.75 532.7 C49.82 534.21 49.82 534.21 48.88 535.75 C48.36 536.59 47.84 537.43 47.3 538.3 C46.66 539.14 46.66 539.14 46 540 C45.34 540 44.68 540 44 540 C43.76 540.7 43.52 541.4 43.28 542.12 C41.77 545.52 39.85 548.08 37.56 551 C37.13 551.56 36.69 552.11 36.25 552.69 C32.48 557.48 28.56 562.15 24.58 566.77 C22.56 569.12 20.72 571.42 19 574 C18.34 574 17.68 574 17 574 C16.77 574.55 16.54 575.1 16.3 575.67 C14.63 578.67 12.52 580.85 10.12 583.31 C9.26 584.22 8.4 585.12 7.51 586.05 C5 588 5 588 2.85 587.95 C-0.02 586.48 -1.89 584.4 -4 582 C-4 581.34 -4 580.68 -4 580 C-4.66 580 -5.32 580 -6 580 C-11 574.52 -11 574.52 -11 572 C-11.66 572 -12.32 572 -13 572 C-14.52 570.5 -14.52 570.5 -16.25 568.44 C-16.86 567.71 -17.48 566.99 -18.11 566.24 C-19.05 565.13 -19.05 565.13 -20 564 C-20.59 563.33 -21.18 562.67 -21.79 561.98 C-22.34 561.37 -22.88 560.76 -23.44 560.12 C-23.93 559.57 -24.42 559.02 -24.93 558.45 C-26 557 -26 557 -26 555 C-26.66 555 -27.32 555 -28 555 C-29.48 553.34 -30.88 551.62 -32.25 549.88 C-34.89 546.56 -37.5 543.37 -40.56 540.44 C-41.37 539.63 -42.17 538.83 -43 538 C-43 537.34 -43 536.68 -43 536 C-43.66 536 -44.32 536 -45 536 C-46.73 534.03 -46.73 534.03 -48.62 531.5 C-49.26 530.66 -49.89 529.83 -50.54 528.97 C-51.26 527.99 -51.26 527.99 -52 527 C-47.49 521.66 -42.81 516.49 -38.07 511.36 C-35.99 509.19 -35.99 509.19 -35 507 C-34.34 507 -33.68 507 -33 507 C-32.73 506.42 -32.45 505.84 -32.17 505.24 C-31.01 503.03 -29.73 501.16 -28.21 499.18 C-27.68 498.48 -27.15 497.78 -26.61 497.06 C-26.06 496.34 -25.51 495.62 -24.94 494.88 C-23.84 493.44 -22.75 492 -21.65 490.55 C-21.17 489.92 -20.68 489.29 -20.18 488.63 C-18.93 487 -18.93 487 -18 485 C-17.34 485 -16.68 485 -16 485 C-15.78 484.35 -15.55 483.7 -15.32 483.03 C-13.55 478.96 -11.23 475.32 -8.88 471.56 C-7.87 469.94 -6.87 468.31 -5.88 466.68 C-5.38 465.88 -4.89 465.08 -4.39 464.26 C25.19 416.03 38.27 359.45 38.19 303.25 C38.19 302.45 38.19 301.65 38.19 300.82 C38.14 279.36 36.82 258.4 32.48 237.35 C32.05 235.24 31.66 233.13 31.29 231.01 C29.5 221.21 26.66 211.83 23.71 202.34 C22.4 198.03 21.23 193.68 20.05 189.34 C18.9 185.67 17.51 182.16 16.06 178.6 C15.06 176.15 14.09 173.68 13.14 171.21 C6.76 154.82 -1.08 139.6 -9.72 124.29 C-10.63 122.67 -11.51 121.04 -12.38 119.39 C-15.97 112.65 -19.97 106.34 -24.31 100.06 C-24.97 99.11 -25.63 98.15 -26.3 97.16 C-31.69 89.36 -37.16 81.61 -43.24 74.32 C-45 72 -45 72 -45 70 C-45.66 70 -46.32 70 -47 70 C-48.98 67.95 -48.98 67.95 -51.19 65.25 C-51.92 64.37 -52.66 63.49 -53.42 62.58 C-55 60 -55 60 -54.81 58.06 C-53.83 55.55 -52.59 54.27 -50.66 52.4 C-49.99 51.74 -49.32 51.09 -48.63 50.41 C-47.93 49.74 -47.22 49.07 -46.5 48.38 C-45.11 47.03 -43.73 45.68 -42.34 44.34 C-41.42 43.45 -41.42 43.45 -40.47 42.54 C-38.9 41.05 -38.9 41.05 -38 39 C-37.34 39 -36.68 39 -36 39 C-35.76 38.44 -35.53 37.87 -35.28 37.29 C-33.7 34.47 -31.78 32.57 -29.46 30.3 C-28.57 29.42 -27.68 28.54 -26.76 27.64 C-25.83 26.73 -24.9 25.81 -23.94 24.88 C-22.09 23.06 -20.25 21.25 -18.4 19.43 C-17.58 18.63 -16.76 17.83 -15.92 17 C-13.95 15.14 -13.95 15.14 -13 13 C-12.34 13 -11.68 13 -11 13 C-11 12.34 -11 11.68 -11 11 C-9.38 9.29 -7.7 7.63 -6 6 C-5.5 5.44 -4.99 4.88 -4.47 4.3 C-2.94 2.63 -2.94 2.63 0 0 Z " fill="black" transform="translate(990,117)"/>
<path d="M0 0 C20 10.12 35.58 42.66 43.99 62.07 C45.2 64.81 46.55 67.48 47.86 70.16 C54.24 84.09 58.38 98.85 61.38 113.84 C62.13 117.54 62.97 121.22 63.8 124.91 C68.77 147.35 69.14 170.02 68.8 192.91 C68.79 194.11 68.79 194.11 68.78 195.33 C68.64 206.26 67.19 216.95 65.49 227.72 C65.29 229.01 65.09 230.3 64.88 231.62 C63.45 240.26 61.37 248.54 58.8 256.91 C58.45 258.07 58.1 259.23 57.74 260.43 C56.78 263.59 55.79 266.75 54.8 269.91 C54.5 270.89 54.21 271.86 53.91 272.86 C51.27 281.24 47.7 289.07 43.8 296.91 C43.49 297.53 43.18 298.16 42.86 298.8 C35.42 313.63 26.1 326.94 15.8 339.91 C15.09 340.86 14.37 341.8 13.64 342.78 C13.03 343.48 12.42 344.19 11.8 344.91 C11.14 344.91 10.48 344.91 9.8 344.91 C9.54 345.5 9.29 346.1 9.03 346.71 C7.68 349.12 6.31 350.42 4.17 352.16 C3.54 352.68 2.91 353.2 2.26 353.74 C1.78 354.13 1.3 354.51 0.8 354.91 C-0.37 354.13 -1.54 353.33 -2.7 352.54 C-3.67 351.87 -3.67 351.87 -4.67 351.2 C-5.17 350.77 -5.68 350.35 -6.2 349.91 C-6.2 349.25 -6.2 348.59 -6.2 347.91 C-6.74 347.69 -7.29 347.46 -7.85 347.23 C-10.94 345.5 -13.24 343.27 -15.83 340.85 C-19.24 337.5 -19.24 337.5 -23.2 334.91 C-23.2 334.25 -23.2 333.59 -23.2 332.91 C-23.78 332.64 -24.36 332.37 -24.95 332.1 C-27.26 330.88 -29.22 329.61 -31.2 327.91 C-31.2 327.25 -31.2 326.59 -31.2 325.91 C-31.76 325.67 -32.31 325.44 -32.88 325.19 C-35.74 323.61 -37.87 321.63 -40.26 319.41 C-42.86 317.01 -45.25 314.88 -48.2 312.91 C-48.2 312.25 -48.2 311.59 -48.2 310.91 C-49.04 310.54 -49.04 310.54 -49.89 310.16 C-52.64 308.67 -54.89 307.03 -57.2 304.91 C-57.2 303.92 -57.2 302.93 -57.2 301.91 C-56.54 301.91 -55.88 301.91 -55.2 301.91 C-54.93 301.34 -54.66 300.76 -54.39 300.17 C-53.17 297.86 -51.8 295.9 -50.22 293.82 C-49.35 292.65 -49.35 292.65 -48.45 291.46 C-47.83 290.64 -47.21 289.82 -46.58 288.97 C-18.25 250.89 -4.95 208.2 -10.57 160.78 C-11.75 152.95 -13.9 145.47 -16.2 137.91 C-16.51 136.84 -16.82 135.77 -17.14 134.66 C-23.38 113.44 -34.43 83.68 -50.2 67.91 C-50.2 66.92 -50.2 65.93 -50.2 64.91 C-50.86 64.91 -51.52 64.91 -52.2 64.91 C-55.2 60.53 -55.2 60.53 -55.2 57.91 C-55.86 57.91 -56.52 57.91 -57.2 57.91 C-56.72 53.66 -54.08 51.36 -51.19 48.48 C-50.67 47.95 -50.15 47.43 -49.62 46.88 C-47.9 45.14 -46.16 43.4 -44.43 41.67 C-43.23 40.47 -42.03 39.26 -40.83 38.05 C-38.32 35.52 -35.8 33 -33.27 30.48 C-30.03 27.25 -26.81 24 -23.6 20.74 C-21.13 18.25 -18.64 15.76 -16.16 13.28 C-14.97 12.08 -13.78 10.89 -12.59 9.68 C-10.94 8.01 -9.27 6.35 -7.6 4.69 C-7.11 4.19 -6.62 3.69 -6.11 3.17 C-2.75 -0.11 -2.75 -0.11 0 0 Z " fill="black" transform="translate(873.2002410888672,234.0891876220703)"/>
</svg>
